<svg xmlns="http://www.w3.org/2000/svg" id="Layer_1" data-name="Layer 1" viewBox="0 0 702.09 268.71"><defs><style>.cls-1{fill:#1b914f;}.cls-2{fill:#283045;}</style></defs><path class="cls-1" d="M104.47,199a10.4,10.4,0,0,1-7.4,17.79H26.9a10.25,10.25,0,0,1-10.39-10.4,10.36,10.36,0,0,1,2.2-6.6A181.93,181.93,0,0,1,38.2,175.45q9.69-10,22.49-21.2Q68.88,147.07,73,143a38.44,38.44,0,0,0,6.7-8.9,21.1,21.1,0,0,0,2.6-10.19q0-9.2-6.3-14.4a22.66,22.66,0,0,0-14.89-5.19,25.55,25.55,0,0,0-12,2.9,22.38,22.38,0,0,0-9,8.49,10.87,10.87,0,0,1-3.8,3.6,10.17,10.17,0,0,1-5.2,1.4,10.81,10.81,0,0,1-8.09-3.4,11.09,11.09,0,0,1-3.3-8,10.8,10.8,0,0,1,2.6-7A40.38,40.38,0,0,1,39,88.38a52.73,52.73,0,0,1,43.48,0,40.54,40.54,0,0,1,16.59,13.9,38.57,38.57,0,0,1,2.1,39,68.52,68.52,0,0,1-10.89,15.19q-6.6,7-18.4,17.8-14,12.58-22.39,21.79H97.07A10.06,10.06,0,0,1,104.47,199Z" transform="translate(-16.51 -75.69)"></path><path class="cls-1" d="M158.54,209.53a58.76,58.76,0,0,1-20.69-23.79q-7.59-15.28-7.59-34.88T137.85,116a58.89,58.89,0,0,1,20.69-23.79,53.91,53.91,0,0,1,58.08,0q13,8.5,20.59,23.79t7.6,34.89q0,19.59-7.6,34.88t-20.59,23.79a53.86,53.86,0,0,1-58.08,0Zm46.58-18.09q7.69-5.81,12.1-16.39a62.71,62.71,0,0,0,4.4-24.19,62.64,62.64,0,0,0-4.4-24.19q-4.4-10.61-12.1-16.4a28.33,28.33,0,0,0-17.49-5.79A28.77,28.77,0,0,0,170,110.27q-7.8,5.81-12.2,16.4a62.64,62.64,0,0,0-4.39,24.19,62.71,62.71,0,0,0,4.39,24.19q4.4,10.59,12.2,16.39a28.71,28.71,0,0,0,17.59,5.8A28.28,28.28,0,0,0,205.12,191.44Z" transform="translate(-16.51 -75.69)"></path><path class="cls-1" d="M295.88,209.53a58.76,58.76,0,0,1-20.69-23.79q-7.59-15.28-7.59-34.88T275.19,116a58.89,58.89,0,0,1,20.69-23.79,53.91,53.91,0,0,1,58.08,0q13,8.5,20.59,23.79t7.6,34.89q0,19.59-7.6,34.88T354,209.53a53.86,53.86,0,0,1-58.08,0Zm46.58-18.09q7.69-5.81,12.1-16.39a62.71,62.71,0,0,0,4.4-24.19,62.64,62.64,0,0,0-4.4-24.19q-4.41-10.61-12.1-16.4A28.33,28.33,0,0,0,325,104.48a28.77,28.77,0,0,0-17.59,5.79q-7.8,5.81-12.2,16.4a62.64,62.64,0,0,0-4.39,24.19,62.71,62.71,0,0,0,4.39,24.19q4.4,10.59,12.2,16.39a28.71,28.71,0,0,0,17.59,5.8A28.28,28.28,0,0,0,342.46,191.44Z" transform="translate(-16.51 -75.69)"></path><path class="cls-2" d="M483.2,198.34a10.42,10.42,0,0,1,3.1,7.69,10.54,10.54,0,0,1-3.1,7.6,10.3,10.3,0,0,1-7.7,3.2h-56a11.61,11.61,0,0,1-11.8-11.8V93.48a11.81,11.81,0,0,1,20.09-8.4,11.27,11.27,0,0,1,3.5,8.4V195.24H475.5A10.44,10.44,0,0,1,483.2,198.34Z" transform="translate(-16.51 -75.69)"></path><path class="cls-2" d="M592.85,123.37a10.83,10.83,0,0,1,3.4,8.09v74a11.62,11.62,0,0,1-11.39,11.4,11.15,11.15,0,0,1-8.2-3.4,10.93,10.93,0,0,1-3.4-8V205a43.16,43.16,0,0,1-13.69,9.6,41.29,41.29,0,0,1-38.49-3,45.48,45.48,0,0,1-15.89-17.69,54.27,54.27,0,0,1-5.9-25.49,54.27,54.27,0,0,1,5.9-25.49,45.48,45.48,0,0,1,15.89-17.69,40.29,40.29,0,0,1,22.19-6.4,39.85,39.85,0,0,1,16.3,3.4,43.29,43.29,0,0,1,13.69,9.59v-.4a10.83,10.83,0,0,1,3.4-8.09,11.34,11.34,0,0,1,8.2-3.3A11.11,11.11,0,0,1,592.85,123.37Zm-31.68,70.17a26.54,26.54,0,0,0,9.39-10.3,33,33,0,0,0,0-29.59,26.58,26.58,0,0,0-9.39-10.29,24.32,24.32,0,0,0-25.79,0,26.6,26.6,0,0,0-9.4,10.29,33,33,0,0,0,0,29.59,26.56,26.56,0,0,0,9.4,10.3,24.32,24.32,0,0,0,25.79,0Z" transform="translate(-16.51 -75.69)"></path><path class="cls-2" d="M696.8,125.27A45.42,45.42,0,0,1,712.7,143a54.27,54.27,0,0,1,5.9,25.49,54.27,54.27,0,0,1-5.9,25.49,45.42,45.42,0,0,1-15.9,17.69,40.26,40.26,0,0,1-22.19,6.4,40.68,40.68,0,0,1-16.39-3.4,42.8,42.8,0,0,1-13.79-9.6v.4a11.11,11.11,0,0,1-3.3,8,11.45,11.45,0,0,1-19.49-8V87.08a11.38,11.38,0,0,1,19.49-8,11.11,11.11,0,0,1,3.3,8v44.78a42.93,42.93,0,0,1,13.79-9.59,41.47,41.47,0,0,1,38.58,3Zm-14.29,68.27a26.64,26.64,0,0,0,9.4-10.3,33,33,0,0,0,0-29.59,26.68,26.68,0,0,0-9.4-10.29,23.84,23.84,0,0,0-12.89-3.7,24.21,24.21,0,0,0-13.1,3.7,25.83,25.83,0,0,0-9.29,10.29,33.89,33.89,0,0,0,0,29.59,25.79,25.79,0,0,0,9.29,10.3,24.21,24.21,0,0,0,13.1,3.7A23.84,23.84,0,0,0,682.51,193.54Z" transform="translate(-16.51 -75.69)"></path><path class="cls-2" d="M116.13,331.59a7.12,7.12,0,0,1,0,9.94,6.67,6.67,0,0,1-5,2.08H74.73a7.55,7.55,0,0,1-7.67-7.67V263.4a7.55,7.55,0,0,1,7.67-7.67h36.39a7,7,0,0,1,5,12,6.67,6.67,0,0,1-5,2.08H82.4v23.66h25.22a6.56,6.56,0,0,1,4.87,2.08,7.05,7.05,0,0,1,0,9.88,6.52,6.52,0,0,1-4.87,2.08H82.4v22.1h28.72A6.81,6.81,0,0,1,116.13,331.59Z" transform="translate(-16.51 -75.69)"></path><path class="cls-2" d="M190.17,254a7.14,7.14,0,0,1,2.21,5.2v77a7.55,7.55,0,0,1-7.42,7.41,7.25,7.25,0,0,1-5.33-2.21,7.11,7.11,0,0,1-2.21-5.2v-.26a27.82,27.82,0,0,1-8.9,6.24,25.86,25.86,0,0,1-10.6,2.21,26.14,26.14,0,0,1-14.42-4.16,29.52,29.52,0,0,1-10.34-11.5,37.78,37.78,0,0,1,0-33.15,29.62,29.62,0,0,1,10.34-11.51,26.84,26.84,0,0,1,25-1.95,28.13,28.13,0,0,1,8.9,6.24V259.24a7.14,7.14,0,0,1,2.21-5.2,7.29,7.29,0,0,1,5.33-2.21A7.15,7.15,0,0,1,190.17,254Zm-20.61,74.43a17.24,17.24,0,0,0,6.11-6.7,21.52,21.52,0,0,0,0-19.24,17.21,17.21,0,0,0-6.11-6.69,15.79,15.79,0,0,0-16.77,0,17.21,17.21,0,0,0-6.11,6.69,21.43,21.43,0,0,0,0,19.24,17.24,17.24,0,0,0,6.11,6.7,15.85,15.85,0,0,0,16.77,0Z" transform="translate(-16.51 -75.69)"></path><path class="cls-2" d="M263.61,282.84a6.88,6.88,0,0,1,2.21,5.13v48.36a6.88,6.88,0,0,1-2.21,5.14,7.2,7.2,0,0,1-5.2,2.14,7.32,7.32,0,0,1-7.28-7.28v-.65a22.82,22.82,0,0,1-8.32,6.44,25.87,25.87,0,0,1-10.92,2.27q-10.78,0-17.35-6.82T208,318.65V288a7.34,7.34,0,0,1,7.28-7.28,7.17,7.17,0,0,1,5.27,2.15,7,7,0,0,1,2.14,5.13v28.47a13.79,13.79,0,0,0,14,14.43A13.72,13.72,0,0,0,247,326.58a14.68,14.68,0,0,0,4.16-10.66V288a7.34,7.34,0,0,1,7.28-7.28A7.21,7.21,0,0,1,263.61,282.84Z" transform="translate(-16.51 -75.69)"></path><path class="cls-2" d="M295.33,340.23a31,31,0,0,1-11.57-11.5,34.16,34.16,0,0,1,0-33.15,31.09,31.09,0,0,1,11.57-11.51,31.73,31.73,0,0,1,16-4.16,30.38,30.38,0,0,1,19.76,6.76,6.79,6.79,0,0,1,2.08,2.34,6.45,6.45,0,0,1,.78,3.12,6.85,6.85,0,0,1-2,4.94,6.89,6.89,0,0,1-9.3.52,16.73,16.73,0,0,0-11.31-4.16,15.49,15.49,0,0,0-8.38,2.41,17.14,17.14,0,0,0-6.11,6.69,21.43,21.43,0,0,0,0,19.24,17.17,17.17,0,0,0,6.11,6.7,15.48,15.48,0,0,0,8.38,2.4,16.68,16.68,0,0,0,11.31-4.16,6.8,6.8,0,0,1,9.17.46,7,7,0,0,1-.72,10.46,30.33,30.33,0,0,1-19.76,6.76A31.63,31.63,0,0,1,295.33,340.23Z" transform="translate(-16.51 -75.69)"></path><path class="cls-2" d="M407.13,282.84a7.05,7.05,0,0,1,2.21,5.26v48.1a7.55,7.55,0,0,1-7.41,7.41,7.23,7.23,0,0,1-5.33-2.21,7.11,7.11,0,0,1-2.21-5.2v-.26a28,28,0,0,1-8.9,6.24,25.86,25.86,0,0,1-10.6,2.21,26.14,26.14,0,0,1-14.43-4.16,29.5,29.5,0,0,1-10.33-11.5,37.69,37.69,0,0,1,0-33.15,29.59,29.59,0,0,1,10.33-11.51,26.86,26.86,0,0,1,25-1.95,28.36,28.36,0,0,1,8.9,6.24v-.26a7.05,7.05,0,0,1,2.21-5.26,7.37,7.37,0,0,1,5.33-2.15A7.23,7.23,0,0,1,407.13,282.84Zm-20.6,45.63a17.32,17.32,0,0,0,6.11-6.7,21.52,21.52,0,0,0,0-19.24,17.29,17.29,0,0,0-6.11-6.69,15.79,15.79,0,0,0-16.77,0,17.14,17.14,0,0,0-6.11,6.69,21.43,21.43,0,0,0,0,19.24,17.17,17.17,0,0,0,6.11,6.7,15.85,15.85,0,0,0,16.77,0Z" transform="translate(-16.51 -75.69)"></path><path class="cls-2" d="M469.14,340.1a6.63,6.63,0,0,1-3.38,2.34,29.81,29.81,0,0,1-10.53,1.95,22.94,22.94,0,0,1-10.4-2.34,19.19,19.19,0,0,1-7.67-7,20.62,20.62,0,0,1-3.51-8.32,65.16,65.16,0,0,1-.78-11V295.12h-7.41a6.76,6.76,0,1,1,0-13.52h7.41V268a7.41,7.41,0,1,1,14.82,0V281.6h13.52a6.62,6.62,0,0,1,4.75,1.95,6.76,6.76,0,0,1,0,9.62,6.62,6.62,0,0,1-4.75,1.95H447.69v23.79q0,6.76,2.73,9.62a8.18,8.18,0,0,0,6.24,2.47,18.29,18.29,0,0,0,5.59-.91,12,12,0,0,1,1.69-.26,6.34,6.34,0,0,1,4.55,1.89,6.17,6.17,0,0,1,1.95,4.61A6,6,0,0,1,469.14,340.1Z" transform="translate(-16.51 -75.69)"></path><path class="cls-2" d="M484.42,271.07a8.33,8.33,0,0,1-2.54-6.24,8.51,8.51,0,0,1,2.54-6.37,8.38,8.38,0,0,1,6-2.47,8.55,8.55,0,0,1,8.71,8.84,8.32,8.32,0,0,1-2.53,6.24,8.51,8.51,0,0,1-6.18,2.47A8.34,8.34,0,0,1,484.42,271.07Zm.84,70.33a7.11,7.11,0,0,1-2.21-5.2V288.1a7.05,7.05,0,0,1,2.21-5.26,7.45,7.45,0,0,1,10.47,0,7.14,7.14,0,0,1,2.14,5.26v48.1a7.2,7.2,0,0,1-2.14,5.2,7.31,7.31,0,0,1-10.47,0Z" transform="translate(-16.51 -75.69)"></path><path class="cls-2" d="M528.81,340.23a31,31,0,0,1-11.57-11.5,34.16,34.16,0,0,1,0-33.15,31.09,31.09,0,0,1,11.57-11.51,33.06,33.06,0,0,1,32.11,0,30.55,30.55,0,0,1,11.5,11.51,34.59,34.59,0,0,1,0,33.15,30.45,30.45,0,0,1-11.5,11.5,33.06,33.06,0,0,1-32.11,0Zm24.37-11.76a17.17,17.17,0,0,0,6.11-6.7,21.43,21.43,0,0,0,0-19.24,17.14,17.14,0,0,0-6.11-6.69,15.77,15.77,0,0,0-16.76,0,17.24,17.24,0,0,0-6.12,6.69,21.52,21.52,0,0,0,0,19.24,17.27,17.27,0,0,0,6.12,6.7,15.83,15.83,0,0,0,16.76,0Z" transform="translate(-16.51 -75.69)"></path><path class="cls-2" d="M642.23,286.74q6.57,6.83,6.57,18.91v30.68a6.92,6.92,0,0,1-2.21,5.14,7.22,7.22,0,0,1-5.2,2.14,7.31,7.31,0,0,1-7.28-7.28V307.86q0-6.63-4.1-10.53a13.88,13.88,0,0,0-9.94-3.9,13.74,13.74,0,0,0-10.27,4.29,14.73,14.73,0,0,0-4.16,10.66v27.95a6.92,6.92,0,0,1-2.21,5.14,7.22,7.22,0,0,1-5.2,2.14,7.31,7.31,0,0,1-7.28-7.28V288a7.32,7.32,0,0,1,7.28-7.28,7.23,7.23,0,0,1,5.2,2.15,6.91,6.91,0,0,1,2.21,5.13v.65a21.81,21.81,0,0,1,8.19-6.43,26,26,0,0,1,11-2.28Q635.67,279.91,642.23,286.74Z" transform="translate(-16.51 -75.69)"></path></svg>